<svg id="Capa_1" data-name="Capa 1" xmlns="http://www.w3.org/2000/svg" xmlns:xlink="http://www.w3.org/1999/xlink" viewBox="0 0 188.15 188.15"><defs><clipPath id="clip-path"><circle cx="94.07" cy="94.07" r="94.07" fill="none"/></clipPath></defs><title>profile1</title><g clip-path="url(#clip-path)"><path d="M149.95,3.8s7.81-12.16,24.6-4.34,25.18,28.36,25.18,34.73-24.89,7.52-24.89,7.52Z" fill="#f78381"/><path d="M165.13-3.12s-3.32,9.3,3.41,17.12,19.1,23,21.71,31.69,6.95,12.81,10.42,10,6.08-21.49-5.21-38.64S168.25-3.17,165.13-3.12Z" fill="#f9a2a1"/><path d="M32.24,3.8S24.43-8.36,7.64-.54-17.54,27.82-17.54,34.19,7.35,41.71,7.35,41.71Z" fill="#f78381"/><path d="M219,136s25.69,16.78,26,56.43c0.28,31.26-21.49,44.5-25.83,51.44s-8.16,29.33-8,33.21c0.14,4.2-16.64,5.93-17.51.72s-3-24.31-3-24.31-16.35,4.05-30.68,7.09A192.67,192.67,0,0,1,130,264s1.3,17.8,0,21.27-17.8,5.64-18.67-.49c-0.9-6.35-3.91-21.27-3.91-21.27S62.7,258,50.11,202.4,219,136,219,136Z" fill="#f78381"/><path d="M84.26-14.51S38.53-11,16.54,19.07-3.72,68.26-22.24,92s-14.47,81.61,26,103,138.92,17.36,181.75-2.89,43.41-63.67,35.31-88.56S192.5,76.37,185.55,55,152-19.14,84.26-14.51Z" fill="#f9a2a1"/><path d="M17.06-3.12S20.37,6.19,13.65,14-5.46,37-8.06,45.69-15,58.5-18.48,55.68-24.56,34.19-13.27,17,13.94-3.17,17.06-3.12Z" fill="#f9a2a1"/><circle cx="46.57" cy="68.41" r="14.33" fill="#424242"/><circle cx="41.52" cy="63.36" r="5.43" fill="#fff"/><circle cx="131.65" cy="64.29" r="14.33" fill="#424242"/><circle cx="126.6" cy="59.24" r="5.43" fill="#fff"/><path d="M96,84.18S62,85.34,51,107s9,33,27.49,34.44,57.88-1.74,64.83-18.52S128.08,81,96,84.18Z" fill="#f78381"/><ellipse cx="76.81" cy="114.17" rx="8.47" ry="13.57" fill="#f56462"/><ellipse cx="112.71" cy="114.17" rx="8.47" ry="13.57" fill="#f56462"/><path d="M80.65,151.94c9.14,13.94,30.44,10.78,38.77-2.17,0.76-1.18-1.12-2.27-1.87-1.1-7.43,11.54-26.81,14.69-35,2.17-0.76-1.16-2.64-.08-1.87,1.1h0Z" fill="#f56462"/><g opacity="0.1"><path d="M221.58,165.51c3.34-6.15,5.07-14,5.92-21.68-1.18-1.33-2.3-2.5-3.32-3.49a80.55,80.55,0,0,0,.66-13.15c-4.8,14.5-16.68,40.81-42.76,55.68-32.61,18.6-108.76,22.6-151.47,21.27a208.66,208.66,0,0,0,20.78,3.35A96,96,0,0,0,56.67,222c17.18,1.81,54.08,3.64,93.28-7.43C203.79,199.37,212.16,182.86,221.58,165.51Z" fill="#231f20"/></g><g opacity="0.2"><path d="M68.34-3.16A77.91,77.91,0,0,0,57,1.38c-1.66.74-3.36,1.76-5.22,2.7C50,5.17,48.07,6.19,46.2,7.48l-2.87,1.9c-0.92.71-1.86,1.42-2.82,2.12-2,1.34-3.71,3-5.57,4.54S31.44,19.35,29.7,21L25,26.1l-4.1,5.1a24.91,24.91,0,0,0-1.8,2.44L17.43,36c-1,1.51-2.09,2.83-2.81,4.14l-2,3.3c-1.15,1.82-1.84,2.86-1.84,2.86S11.17,45.11,12,43.1l1.48-3.62a39.88,39.88,0,0,1,2.27-4.54,53,53,0,0,1,3-5.22C20,27.95,21.18,26,22.6,24.17s3-3.71,4.68-5.52,3.47-3.57,5.37-5.21,3.81-3.27,5.87-4.64c1-.72,2-1.42,3-2.1l3.08-1.82a67.38,67.38,0,0,1,6-3.11c2-.83,3.83-1.66,5.62-2.22l2.54-.85,2.34-.62c1.46-.4,2.77-0.62,3.83-0.83A30,30,0,0,1,68.34-3.16Z" fill="#fff"/></g><g opacity="0.2"><path d="M6.12,86.5s-0.7.36-1.88,1c-0.6.32-1.29,0.78-2.11,1.23s-1.7,1-2.65,1.69-2,1.34-3,2.1S-5.67,94.21-6.82,95s-2.2,1.85-3.27,2.86a38.14,38.14,0,0,0-3.14,3.17c-0.5.55-1,1.08-1.52,1.64l-1.37,1.74a41.59,41.59,0,0,0-2.53,3.5,39.65,39.65,0,0,0-2.1,3.47c-0.32.57-.65,1.11-0.93,1.65l-0.75,1.61c-0.45,1-1,2-1.32,2.85s-0.62,1.64-.86,2.28c-0.5,1.27-.83,2-0.83,2s0-.78.15-2.15c0.06-.69.14-1.53,0.26-2.49a27.68,27.68,0,0,1,.72-3.17l0.47-1.81c0.19-.62.48-1.22,0.73-1.86a25.07,25.07,0,0,1,1.82-3.94,28.61,28.61,0,0,1,2.47-3.94l1.43-1.92c0.51-.62,1.06-1.21,1.6-1.81a41.44,41.44,0,0,1,3.46-3.32c1.16-1.08,2.49-1.91,3.68-2.81a41.6,41.6,0,0,1,3.7-2.21l1.77-.92,1.71-.74c1.08-.5,2.13-0.81,3-1.14S3.31,87,4,86.9A17.16,17.16,0,0,1,6.12,86.5Z" fill="#fff"/></g></g></svg>