<svg id="Capa_1" data-name="Capa 1" xmlns="http://www.w3.org/2000/svg" xmlns:xlink="http://www.w3.org/1999/xlink" viewBox="0 0 188.15 188.15"><defs><clipPath id="clip-path"><circle cx="94.07" cy="94.07" r="94.07" fill="none"/></clipPath></defs><title>profile2</title><g clip-path="url(#clip-path)"><path d="M171.63,229.9s16.61,4.47,22-2.55-7.27-29.74.08-47,25.87-10.86,24.59,0-17.33,2.39-16,18.52,11.5,32.1-7.43,41.92c-18.36,9.53-33.06.88-33.06,0.88Z" fill="#fff"/><path d="M164.23,171.37s23,47.63,0,87.39-98.71,35.45-114,2.4-9.1-76.65-9.1-76.65Z" fill="#fff"/><path d="M144.81,173.44c-0.41,1-.81,2.12-1.2,3.28,0,0-10.54,25.64-3.59,38.27s17,3.71,27.07,17c2.06,2.72,4,3.7,5.78,3.41,6.38-32.92-8.64-64-8.64-64Z" fill="#caa383"/><path d="M44.92,246.66c25.81-8.37,18.69-56.81,18.69-56.81a72.08,72.08,0,0,0-11.47-6.53l-11,1.18S36.51,216.65,44.92,246.66Z" fill="#f5b041"/><path d="M43-4.25s19.16-10.54,47.43-11,40.24,11,40.24,11,35-36.89,44.55-31.62S179,37.91,179,37.91l9.58,23s26.83,27.59,20.12,65.77-60.36,64.54-105.87,68.85-102-11-121.68-46S-4,69-4,69L3.2,42.7s-11-58-2.87-69S43-4.25,43-4.25Z" fill="#fff"/><path d="M0.33-26.29c-8.14,11,2.87,69,2.87,69L-4,69A125.67,125.67,0,0,0-18.66,95.89c20.43,17.48,60.6,25.16,82.49,8.13,22.43-17.45,16.63-93,14-118.4C56.59-11.74,43-4.25,43-4.25S8.47-37.31.33-26.29Z" fill="#caa383"/><circle cx="51.53" cy="78.25" r="12.3" fill="#424242"/><circle cx="47.2" cy="73.92" r="4.66" fill="#fff"/><path d="M83.84,151s3.51,27,17.89,25.71,9.74-29.54,9.74-29.54L98,137.71S91,149.37,83.84,151Z" fill="#f9a2a1"/><path d="M94.15,118.35L96.86,138c0.21,1.52,2.52.87,2.31-.64l-2.71-19.68c-0.21-1.52-2.52-.87-2.31.64h0Z" fill="#424242"/><path d="M92.46,106.26s12.79-2.08,12.47,3.19S99.81,119.67,95.66,120s-13.41-5.43-13.25-8.62S89.77,106.56,92.46,106.26Z" fill="#f9a2a1"/><path d="M188.6,60.9l-9.58-23s5.75-68.51-3.83-73.78S130.63-4.25,130.63-4.25s-12-11.5-40.24-11a118.27,118.27,0,0,0-12.59.89h0S91.72,85.82,117.17,99.23c20.78,11,62.43-5.54,82.69-22.28A79.51,79.51,0,0,0,188.6,60.9Z" fill="#f5b041"/><path d="M75.53,150.21c9.48,6.23,20.85-4.49,23.63-13.29l-2,.53c5.89,6.39,16.77,17,23.48,5.51a1.2,1.2,0,0,0-2.07-1.21c-5.48,9.37-15.15-1-19.72-6a1.21,1.21,0,0,0-2,.53c-2.3,7.26-12.58,16.81-20.11,11.86-1.29-.85-2.49,1.22-1.21,2.07h0Z" fill="#424242"/><path d="M150.27,64.5s-14.37-6.11-25.39,1.08c-14.21,9.26-10.41,17.61-7.72,18.56s-0.67-7.48,8.68-14.88S150.27,64.5,150.27,64.5Z" fill="#424242"/><path d="M8.63,29A107.72,107.72,0,0,1,22,12.68c7.35-7,12.46-9.9,12.46-9.9S4.8-26.29,3.2-18.94,8.63,29,8.63,29Z" fill="#f9a2a1"/><path d="M141.49,2.3a54,54,0,0,1,17.17,10.46c7.67,7.19,10,13.17,10,13.17s7.35-40.16,3-47.59S141.49,2.3,141.49,2.3Z" fill="#f9a2a1"/><path d="M94.38,186.42a9,9,0,0,1-7.93-7.87,11.87,11.87,0,0,0-2,10.51c3.11,10.3,17.62-1.68,22.7-2.63,3.68-.69,14.48,4.77,22.53,10.11h0S117.26,185.58,110,184.38,97.74,186.9,94.38,186.42Z" fill="#fff"/><g opacity="0.2"><path d="M63.83-.42s-1.07.56-2.88,1.63c-0.92.5-2,1.21-3.26,1.93S55,4.76,53.56,5.75s-3.1,2-4.78,3.22-3.37,2.48-5.19,3.76-3.53,2.8-5.33,4.26-3.6,3-5.24,4.69l-2.57,2.42c-0.85.81-1.6,1.7-2.41,2.54l-2.36,2.5-2.14,2.58-2.08,2.5-1.83,2.52a52.8,52.8,0,0,0-3.25,4.72l-2.6,4.12L12,48.9c-1,1.85-1.62,2.9-1.62,2.9s0.31-1.16.92-3.19l1.15-3.67c0.55-1.37,1.24-2.9,2-4.56,0.4-.82.74-1.72,1.23-2.59l1.55-2.63,1.66-2.79c0.6-.93,1.31-1.81,2-2.74L23,26.82c0.75-.91,1.55-1.8,2.36-2.7s1.59-1.83,2.46-2.69l2.63-2.56c1.74-1.73,3.7-3.2,5.53-4.76s3.84-2.83,5.71-4.14,3.77-2.44,5.62-3.43c0.92-.5,1.79-1,2.67-1.47l2.56-1.24c1.62-.83,3.19-1.42,4.55-2s2.58-1,3.6-1.31C62.64-.15,63.83-0.42,63.83-0.42Z" fill="#fff"/></g></g></svg>