<svg id="Capa_1" data-name="Capa 1" xmlns="http://www.w3.org/2000/svg" xmlns:xlink="http://www.w3.org/1999/xlink" viewBox="0 0 188.15 188.15"><defs><clipPath id="clip-path"><circle cx="94.07" cy="94.07" r="94.07" fill="none"/></clipPath></defs><title>profile3</title><g clip-path="url(#clip-path)"><path d="M146.66-20.36s30.25-31.46,34.79-27.53S165.72,5.05,165.72,5.05Z" fill="#dcc1ad"/><g opacity="0.1"><path d="M181.72-41.77c-3,7.17-8.48,19.41-12.67,23.08-4.54,4-14.87-1.42-19.74-4.36-1.65,1.66-2.64,2.7-2.64,2.7l16.52,22a5.92,5.92,0,0,0,3.89.06C170.55-7,179.72-30.4,181.72-41.77Z" fill="#231f20"/></g><path d="M23.22,175.68s-21.78,50.83,8.47,90.16,97.72,33.58,97.72,33.58-2.44,30.61,10.87,33,14.24-6.11,14.24-14V300.33s20.72-1.06,32.3-2.87,26.32-7.71,26.32-7.71-1.59,16.79,2.95,18.83,13.61,1.82,14.07-7.71,0-21.33,0-21.33,32.67-27,37.21-66-18.61-89.4-56.73-97.11S23.22,175.68,23.22,175.68Z" fill="#fff"/><g opacity="0.2"><path d="M217.06,118.14a111.11,111.11,0,0,0,.84-15.37,68.67,68.67,0,0,0-1-11,132.18,132.18,0,0,1-6.74,29.43c-7.65,20.77-26.32,46-72.26,58.95s-116,.08-116.39,0h0a98.49,98.49,0,0,0,56.11,22.44c23.58,1.68,79,.45,111.18-22.46,23.95-17,34.6-44.3,38.5-57.19A54.85,54.85,0,0,0,217.06,118.14Z" fill="#231f20"/></g><path d="M162.69-.7s20-1.21,32.67-4.84,28.59-6.5,30-2-8.62,37.21-43.11,36.3S162.69-.7,162.69-0.7Z" fill="#fff"/><path d="M29.88-4.93s-23.3-.91-40.24-5.45-22.69-7.26-22.69-1.51S-19.74,31.68,10.82,32,29.88-4.93,29.88-4.93Z" fill="#fff"/><path d="M97.64-37.91s-49-1.36-74,36.3S6,52.85-11.27,72.82-32.14,140.89,3.25,169s101,29.45,144.76,18.61c55.52-13.77,78.81-46.55,74.42-82.14C217.91,68.74,194.76,64.65,183,28.35S146.66-35.64,97.64-37.91Z" fill="#fff"/><path d="M154.82,119.56c-22.24-34.94-88.49-39.48-115.27-8.62-21.3,24.55-17.33,58-14.81,70.63,36.59,15.66,87.32,15,123.27,6.06a133.9,133.9,0,0,0,20.73-6.58C170.36,170.16,171.3,145.46,154.82,119.56Z" fill="#dcc1ad"/><path d="M83.35,117.07S79,105.72,67.92,109.58,54.08,123,58.16,130.23s14.75,3.63,18.61,2S86.75,125.46,83.35,117.07Z" fill="#caa383"/><path d="M104.22,116.84s3.4-10.44,15-8.06c10.05,2.06,14.07,12.83,10.89,20.09s-15.66,5.9-21.1,1.36S103.09,120.7,104.22,116.84Z" fill="#caa383"/><path d="M75.49,151.48c4.65,19.77,30.27,17.77,36.37,0,1-2.77-3.43-4-4.38-1.21-4.7,13.68-24.09,15-27.62,0-0.67-2.84-5-1.64-4.38,1.21h0Z" fill="#caa383"/><path d="M77.75-35.76C61.3-32.38,38.34-23.73,23.67-1.6,2.63,30.16,4.49,47.08-4.75,63.57,8.82,85,67.81,94.29,89.48,49.68,108.14,11.25,86.55-23.88,77.75-35.76Z" fill="#424242"/><circle cx="55.64" cy="49.68" r="16.49" fill="#fff"/><circle cx="55.64" cy="49.68" r="11.65" fill="#424242"/><circle cx="51.53" cy="45.57" r="4.41" fill="#fff"/><circle cx="137.62" cy="49.68" r="11.65" fill="#424242"/><circle cx="133.52" cy="45.57" r="4.41" fill="#fff"/><g opacity="0.2"><path d="M67.28-21.59s-1.07.59-2.87,1.72c-0.91.53-2,1.27-3.23,2s-2.62,1.71-4.09,2.76-3.06,2.16-4.71,3.4-3.31,2.63-5.1,4-3.47,2.95-5.21,4.51S38.57,0,37,1.73L34.5,4.27c-0.8.87-1.54,1.79-2.31,2.67L29.93,9.58l-2,2.7c-0.67.89-1.35,1.75-2,2.63l-1.73,2.63L22.53,20c-0.52.81-.94,1.65-1.38,2.42-0.85,1.58-1.72,3-2.41,4.28l-1.61,3.44c-0.92,1.91-1.48,3-1.48,3s0.27-1.18.8-3.25l1-3.74c0.48-1.41,1.13-3,1.83-4.68,0.36-.85.69-1.76,1.12-2.66l1.46-2.72,1.55-2.87c0.54-1,1.24-1.88,1.87-2.85l2-2.92c0.7-1,1.48-1.88,2.25-2.82S31,2.79,31.85,1.87L34.4-.81c1.68-1.81,3.58-3.39,5.37-5s3.76-3,5.58-4.41,3.7-2.61,5.53-3.68l2.63-1.59L56-16.86c1.6-.9,3.16-1.55,4.5-2.2s2.56-1.1,3.57-1.46C66.1-21.28,67.28-21.59,67.28-21.59Z" fill="#fff"/></g></g></svg>