<svg id="Capa_1" data-name="Capa 1" xmlns="http://www.w3.org/2000/svg" xmlns:xlink="http://www.w3.org/1999/xlink" viewBox="0 0 188.15 188.15"><defs><clipPath id="clip-path"><circle cx="94.07" cy="94.07" r="94.07" fill="none"/></clipPath></defs><title>profile4</title><g clip-path="url(#clip-path)"><path d="M155.79-17.35s-11,11.2-12.52,16.57,22.65,25.93,22.65,25.93,12.32-9.84,22.26-7.15S179-15.74,155.79-17.35Z" fill="#b88431"/><path d="M31.21-17.35S44.32-7,44.32.71,17.5,30.51,17.5,30.51,7.66,14.71-.09,14.12,31.21-17.35,31.21-17.35Z" fill="#b88431"/><path d="M220.77,136.62s61.4-5.37,84.65,39.94S296.78,266,296.78,266s-6.26,66.47-16.69,68.55-16.39-39.94-16.39-39.94a207.46,207.46,0,0,1-50.37,17.29c-28.32,5.66-39.64,6.26-39.64,6.26s0.89,38.75-15.2,40.83-17.59-42.92-17.59-42.92-48.58-.3-75.41-46.8-9.84-77.2-9.84-77.2Z" fill="#f5b041"/><path d="M234.64,136.69a102.07,102.07,0,0,0-13.87-.07L55.65,192.06s-8.9,16.11-3.63,42.65a291.22,291.22,0,0,0,43.32,4.93c30.15,1.08,52.43-17.77,52.43-17.77s12.8,3,40.42-4.77,40.62-59.57,40.62-59.57S231.7,148.58,234.64,136.69Z" fill="#231f20" opacity="0.1"/><path d="M64.23,213.92S72.93,227,106.32,225s45.3-23,45.3-23l-46.5-93H71.83Z" fill="#d1d1d1"/><path d="M188.18,86.74s-4-65.18-40.54-91.4S28-15.39,8.55,31.9-3,123.31-3,123.31Z" fill="#f5b041"/><path d="M82.08,102.64S63,83.57,23.26,96.68s-63.19,44.91-50.47,89.81S34,235,58.63,224.25,97.57,171,97.57,155.89s-2-32.59-2-32.59,3.58,23.84,5.56,33.78,18.29,55.49,70.74,56.83c62.39,1.59,61.6-62.79,52.46-87.83C216.28,104,195.34,78,160,80s-54.45,23.84-54.45,23.84Z" fill="#fff"/><path d="M84.06,86.55s34.63-5.12,36.19,5.64-5.78,30.11-22.2,35.24-31.28-16-33.54-26.37C62.93,93.85,68,88.54,84.06,86.55Z" fill="#424242"/><path d="M31.21-17.35A202.52,202.52,0,0,0,10.94,6.87C4.52,16.07-8.93,39.06-17.28,32.7S-9.73.51,1-8.63,31.21-17.35,31.21-17.35Z" fill="#f5b041"/><path d="M155.79-17.35s13.11-7.57,23.84-2.21S209.89,24,204.08,30.51c-5.34,6-19.81-18-28.81-29.53C168.16-8.1,155.79-17.35,155.79-17.35Z" fill="#f5b041"/><circle cx="46.51" cy="63.34" r="18.54" fill="#424242"/><circle cx="39.98" cy="56.81" r="7.02" fill="#fff"/><circle cx="37.21" cy="69.24" r="4.25" fill="#fff"/><circle cx="133.08" cy="56.81" r="18.54" fill="#424242"/><circle cx="126.55" cy="50.28" r="7.02" fill="#fff"/><circle cx="123.79" cy="62.71" r="4.25" fill="#fff"/><circle cx="77.7" cy="97.57" r="5.07" fill="#fff"/><g opacity="0.1"><path d="M223.48,123.83c0.34,13.57-.55,34.92-8.27,46.77-11.92,18.28-42.13,27.42-65.57,24.64S99,145,99,145c0.77,4.62,1.53,9,2.15,12.1,2,9.94,18.29,55.49,70.74,56.83,62.39,1.59,61.6-62.79,52.46-87.83C224.07,125.34,223.78,124.59,223.48,123.83Z" fill="#231f20"/></g><g opacity="0.1"><path d="M97.57,155.89c0-2.22,0-4.48-.12-6.74-3.51,8.88-12.93,29.75-27.7,40.52-19.08,13.91-55.36,18.71-74.33,12.72-12.37-3.91-21.61-23.34-26.1-39.8a86.27,86.27,0,0,0,3.47,23.91C-14.5,231.4,34,235,58.63,224.25S97.57,171,97.57,155.89Z" fill="#231f20"/></g><g opacity="0.2"><path d="M70-4.06s-1.2.51-3.22,1.51c-1,.46-2.22,1.14-3.62,1.8s-2.94,1.53-4.58,2.49-3.43,2-5.28,3.12-3.71,2.47-5.71,3.72-3.88,2.81-5.82,4.33S37.82,16,36.07,17.76l-2.77,2.51L30.76,23c-0.81.92-1.72,1.74-2.48,2.67L26,28.41a60.13,60.13,0,0,0-4,5.43l-1.81,2.58L18.7,39c-0.91,1.66-1.9,3.12-2.61,4.5L14.35,47.1c-1,2-1.62,3.18-1.62,3.18S13,49,13.45,46.79c0.25-1.11.55-2.47,1-4s1.13-3.19,1.84-5l1.13-2.87L18.95,32a41.69,41.69,0,0,1,3.71-6.09,48,48,0,0,1,4.69-6L30,17l2.88-2.72c1.9-1.84,4.05-3.38,6.09-5s4.27-2.87,6.34-4.2,4.21-2.4,6.27-3.31c1-.47,2-1,3-1.37L57.39-.73c1.81-.75,3.56-1.21,5.06-1.71s2.87-.79,4-1A31.46,31.46,0,0,1,70-4.06Z" fill="#fff"/></g></g></svg>