<svg id="Capa_1" data-name="Capa 1" xmlns="http://www.w3.org/2000/svg" xmlns:xlink="http://www.w3.org/1999/xlink" viewBox="0 0 188.15 188.15"><defs><clipPath id="clip-path"><circle cx="94.07" cy="94.07" r="94.07" fill="none"/></clipPath></defs><title>profile5</title><g clip-path="url(#clip-path)"><path d="M186.12,47.84s-7.92-45.56-51.5-60.08-92.43-2-112.24,26.41S2.57,70.95,2.57,70.95-20.5,89.37-23.84,124.43C-29.12,179.88,23,189.13,23,189.13s-32.35,35-15.85,76.59,62.72,54.14,108.94,50.18,85.17-26.41,103-63.38,19.15-75.93,7.92-77.91-13.2,14.53-31,12.54-21.13-11.88-21.13-11.88,42.69-12.1,45.56-50.18C222.73,94.77,213.19,65,186.12,47.84Z" fill="#f7e041"/><path d="M82,102.86s2.64-7.48,10.12-7,7,4.4,12.1,6.16,9.72-3.58,11.66-.44c2.86,4.62-4,10.56-2.2,13.64s5.5,2.86,5.28,7.26-16.07,13.64-29,13.64-23.33-8.36-23.55-12.76,7.7-6.82,6.6-10.78-6.82-6.82-4.18-10.12S76.74,105.5,82,102.86Z" fill="#dd6b38"/><circle cx="59.79" cy="78.35" r="12.39" fill="#424242"/><circle cx="55.42" cy="73.98" r="4.69" fill="#fff"/><circle cx="124.79" cy="78.35" r="12.39" fill="#424242"/><circle cx="120.42" cy="73.98" r="4.69" fill="#fff"/><g opacity="0.1"><path d="M50.73,188.14s24.8,1.65,46.58,0,45.23-5.94,45.23-5.94a165.09,165.09,0,0,1-45.9,14.19A73.69,73.69,0,0,1,50.73,188.14Z" fill="#231f20"/></g><g opacity="0.1"><path d="M174.89,175.26s42.7-12.1,45.56-50.18a102.88,102.88,0,0,0-2.08-30.41,101.2,101.2,0,0,1-6.51,35C202.18,154.8,174.89,175.26,174.89,175.26Z" fill="#231f20"/></g><g opacity="0.1"><path d="M-24.18,133.13c0.66,47.72,47.22,56,47.22,56S-9.1,169.33-24.18,133.13Z" fill="#231f20"/></g></g></svg>