<svg id="Capa_1" data-name="Capa 1" xmlns="http://www.w3.org/2000/svg" xmlns:xlink="http://www.w3.org/1999/xlink" viewBox="0 0 188.15 188.15"><defs><clipPath id="clip-path"><circle cx="94.07" cy="94.07" r="94.07" fill="none"/></clipPath></defs><title>profile6</title><g clip-path="url(#clip-path)"><path d="M45.1,195.72S6,239.36,26.86,275.84,128.47,311.67,165,300.92s61.23-36.48,62.75-56.34c1.38-18-6.95-46-20.84-56.45s-24.75-12.59-24.75-12.59Z" fill="#e74c3c"/><path d="M105.67-78.79S49.66-95.7,27.51-34,11.88,46.29-8.32,71.83s-32.57,60.06-6.51,94.26,63.18,30.29,67.74,36.8S65.94,219,72.45,211s7.31-4.24,15.85,3.23c10.42,9.12,9.87-8.46,18-10,10.42-2,7.82,14.78,16.94,10.32s2.82-14,11.18-16.1c7.42-1.85,11.38,8.37,17.27,7.08,8.9-2,1-14.12,11.94-16.62,5.21-1.19,11.94,4.89,15.42,2.94,10-5.65,2.82-13,10.64-18.24s31.92-22.15,32.57-50.81-26.06-25.4-35.83-74.91S163.86-63.74,105.67-78.79Z" fill="#efac71"/><circle cx="54.65" cy="47.01" r="16.72" fill="#424242"/><circle cx="48.76" cy="41.12" r="6.33" fill="#fff"/><circle cx="128.04" cy="47.01" r="16.72" fill="#424242"/><circle cx="122.15" cy="41.12" r="6.33" fill="#fff"/><path d="M78.64,86.62s0.33,18.89-4.23,30.94S50,150.78,67.57,162.5s21.82-22.15,21.82-22.15,0,29.31,16.61,28.66,13.12-15.31,9.82-26.06-10.14-18.56-11.12-32.89-1.63-23.45-1.63-23.45H78.64Z" fill="#e74c3c"/><g opacity="0.1"><path d="M189.7,173.58c7.82-5.21,31.92-22.15,32.57-50.81,0.36-15.75-7.55-21.87-16.37-32.4,2.89,8.54,5.16,20.13,2.25,31.75-5.65,22.58-24.75,36.5-27.79,46.91s-6.46,14-12.48,12.37-13.68,3.58-14.82,9.12-7,7.17-11.4,4.89-12.38-3.09-14.49,2.28S122,205,118.58,202.4s-11.16-5.59-17-.81-5.86,8.69-10.86,8S85.26,199.85,77,203.1s-11.24,8.47-16.59,1.74-12.94-10-20.11-11.07c-4.29-.65-19.74-4.59-34.79-8.8,15.57,10,31.24,12.34,40.22,14.65l-0.85-.22c2.63,1.38,7.06,4.05,8.51,7.07,2.12,4.4,4.56,15.8,13.52,14s9-8.14,12.05-8.47,10.31,9,17.37,7.65S104,210.05,108,208.59s6,9.45,13.19,9.28,12.58-4,13.29-8.33,2-8.6,4-8.6,13,11.4,19.7,5.37,1-12.7,6.51-14.33,10.26,6.68,18.56,2.93c6-2.73,8.89-10.94,10-15.22a65.79,65.79,0,0,0-6.59-2.81,9.11,9.11,0,0,0-.72,1.82A8.63,8.63,0,0,1,189.7,173.58ZM47.46,200.08l-0.91-.25Zm4.69,2L51.94,202Zm-1.28-.79-0.33-.15Zm-1.47-.61L49,200.55Zm131.22-9.89a16.91,16.91,0,0,1-1.55,1A16.87,16.87,0,0,0,180.62,190.82Zm0.41-.32c0.31-.24.6-0.48,0.86-0.72C181.63,190,181.33,190.27,181,190.51Zm1.22-1.07a10.08,10.08,0,0,0,.68-0.76C182.72,188.93,182.5,189.18,182.25,189.44Zm0.92-1.05a9.21,9.21,0,0,0,1.22-2.21A9.22,9.22,0,0,1,183.17,188.38Zm1.63-3.53c0.51-2.07.52-4.16,1.08-6.14C185.32,180.69,185.32,182.78,184.8,184.85ZM184.45,186c0.12-.33.23-0.67,0.31-1Q184.63,185.5,184.45,186Z" fill="#231f20"/></g><path d="M90.69,105.4s13.68-14.33,13.68-22.8S95.25,72.18,90.69,72.18C82.44,72.18,77,78.91,77,83.69S90.69,105.4,90.69,105.4Z" fill="#f7e041"/></g></svg>