<svg xmlns="http://www.w3.org/2000/svg" width="68" height="23.5" viewBox="0 0 136 47">
  <defs>
    <style>
      .cls-1 {
        fill: #fff;
        fill-rule: evenodd;
      }
    </style>
  </defs>
  <path id="yarn_" class="cls-1" d="M24.863,1.3L18.337,23.29q-0.186.587-.59,2.023t-0.652,2.219h-0.87a33.33,33.33,0,0,0-.995-4.242L8.58,1.3H0.562L10.879,31.317a2.378,2.378,0,0,0,2.548,1.958h1.492l-0.311.718a11.441,11.441,0,0,1-3.232,4.666A15.354,15.354,0,0,1,5.659,41.5L6.28,46.522q6.09,0.326,9.82-3.263a21.816,21.816,0,0,0,5.532-9.005L32.943,1.3H24.863Zm24.8,5.612q3.293,0,4.412.914t1.181,3.654v1.958H43.818a9.709,9.709,0,0,0-6.65,2.088,7.508,7.508,0,0,0-2.362,5.939v3.263a8.781,8.781,0,0,0,2.672,6.819,9.9,9.9,0,0,0,6.961,2.447,14.743,14.743,0,0,0,11.622-5.612l0.808,4.894h5.967V11.544q0-6.2-2.766-8.679T51.4,0.385A79.514,79.514,0,0,0,36.174,1.951L36.92,7.563q7.954-.652,12.741-0.653h0ZM43.042,19.832a3.178,3.178,0,0,1,2.517-.979h9.7v4.96Q50.84,27.6,46.3,27.6q-3.978,0-3.977-3.915v-1.24A4.157,4.157,0,0,1,43.042,19.832Zm45.9-19.447Q82.91,0.385,76.385,6L75.7,1.3H69.8V33.275h7.582V10.7q6.836-2.871,10.068-2.871h2.175l0.807-7.439H88.939ZM94.222,1.3V33.275H101.8V11.022a45.936,45.936,0,0,1,5.687-3,11.239,11.239,0,0,1,4.319-.914,2.958,2.958,0,0,1,2.548.946,6.667,6.667,0,0,1,.684,3.622v21.6h7.582V9.26q0-4.307-2.175-6.591A8.181,8.181,0,0,0,114.234.385q-6.091,0-13.176,5.612l-0.5-4.7h-6.34Zm33.435,18.5a4.893,4.893,0,0,0,0,6.665,4.349,4.349,0,0,0,6.347,0,4.893,4.893,0,0,0,0-6.665A4.349,4.349,0,0,0,127.657,19.8Zm0.565,6.093a4.087,4.087,0,0,1-.011-5.543,3.563,3.563,0,0,1,5.229,0,4.061,4.061,0,0,1,0,5.533,3.45,3.45,0,0,1-2.6,1.153A3.486,3.486,0,0,1,128.222,25.891Zm4.835-3.956a1.329,1.329,0,0,0-.473-1.174,2.927,2.927,0,0,0-1.6-.328q-1.471,0-2.156.064v5.162h1.068V23.606h1.068a0.691,0.691,0,0,1,.705.487l0.463,1.566h1.129l-0.524-1.608a0.944,0.944,0,0,0-.806-0.8V23.2a1.154,1.154,0,0,0,1.128-1.27h0Zm-3.163-.656h1.068a1.55,1.55,0,0,1,.816.148,0.676,0.676,0,0,1,.191.614,0.676,0.676,0,0,1-.191.6,1.553,1.553,0,0,1-.816.18h-1.068V21.278Z"/>
</svg>
