<svg xmlns="http://www.w3.org/2000/svg" width="26.67" height="26.33" viewBox="0 0 53.34 52.66">
  <defs>
    <style>
      .cls-1 {
        fill: #1c1d23;
        stroke: #8d96e1;
        stroke-width: 3px;
      }

      .cls-1, .cls-2 {
        fill-rule: evenodd;
      }

      .cls-2 {
        fill: #8d96e1;
      }
    </style>
  </defs>
  <path id="Polygon_1" data-name="Polygon 1" class="cls-1" d="M3354.31,4675.45h1.55c-2.87,0-7.7,11.21-7.7,11.21s-5.01-11.21-7.7-11.21h1.57a19.225,19.225,0,0,1,.2-38.45h11.89A19.225,19.225,0,0,1,3354.31,4675.45Z" transform="translate(-3321.5 -4635.5)"/>
  <path id="y" class="cls-2" d="M3350.67,4648.47l-2.48,8.35c-0.05.15-.12,0.41-0.23,0.77s-0.18.65-.24,0.85h-0.34a13.229,13.229,0,0,0-.37-1.62l-2.53-8.35h-3.04l3.92,11.4a0.893,0.893,0,0,0,.96.75h0.57l-0.12.27a4.215,4.215,0,0,1-1.23,1.77,5.871,5.871,0,0,1-2.17,1.08l0.24,1.91a4.777,4.777,0,0,0,3.73-1.24,8.379,8.379,0,0,0,2.1-3.42l4.29-12.52h-3.06Z" transform="translate(-3321.5 -4635.5)"/>
</svg>
